<svg viewBox="0 0 100 100" xmlns="http://www.w3.org/2000/svg"><style>.st120{fill:#f60}</style><g id="Layer_2"><path class="st120" d="M95.861 43.517c-7.059-44.746-67.18-53.838-87.55-13.491-14.094 28.783 5.422 62.6 37.287 65.569-.246.138 11.835.216 5.657-.32-2.384-.191-5.999-.995-8.814-1.959-36.39-12.825-36.26-63.1.176-75.704 23.974-8.48 50.92 8.586 53.287 33.766.096 1.138.173 1.413.319 1.15.27-.481.038-6.243-.362-9.011z"/><path class="st120" d="M88.716 53.078c-8.249 8.928-23.788 3.74-25.163-8.21-.951-6.583 3.482-13.149 9.804-15.499C26.439 7.838 3.291 82.524 55.402 89.897 76.571 91.661 93.966 72.754 90.013 52c-.052-.085-.636.4-1.297 1.078z"/></g></svg>